# Blender v2.90.1 OBJ File: ''
# www.blender.org
mtllib fence.mtl
v -0.004692 0.000000 1.000000
v -0.004692 4.264976 1.018759
v -0.004692 4.264976 0.673417
v -0.004692 2.814538 0.673417
v -0.004692 2.849072 -3.401621
v -0.004692 4.368578 -3.298018
v -0.004692 4.299510 -3.608826
v -0.004692 2.952677 -3.712429
v -0.004692 2.952677 -7.994672
v -0.004692 2.192923 -7.994672
v -0.004692 2.261990 -3.919634
v -0.004692 1.813047 -3.954168
v -0.004692 1.709444 -7.960136
v -0.004692 0.915157 -7.925603
v -0.004692 0.949691 -3.954168
v -0.004692 0.569814 -7.925603
v -0.004692 -0.051801 -7.960136
v -0.004692 -0.086336 -3.954167
v 0.000000 2.272608 0.641882
v -0.000000 2.214782 -3.452282
v -0.000000 1.833122 -3.440717
v 0.000000 1.752164 0.630316
v 0.000000 1.231719 0.549358
v 0.000000 0.595620 0.572489
v -0.000000 0.965714 -3.209409
v -0.004692 0.000000 1.000000
v -0.004692 4.264976 1.018759
v -0.004692 4.264976 0.673417
v -0.004692 2.814538 0.673417
v -0.004692 2.849072 -3.401621
v -0.004692 4.368578 -3.298018
v -0.004692 4.299510 -3.608826
v -0.004692 2.952677 -3.712429
v -0.004692 2.952677 -7.994672
v -0.004692 2.192923 -7.994672
v -0.004692 2.261990 -3.919634
v -0.004692 1.813047 -3.954168
v -0.004692 1.709444 -7.960136
v -0.004692 0.915157 -7.925603
v -0.004692 0.949691 -3.954168
v -0.004692 0.569814 -7.925603
v -0.004692 -0.051801 -7.960136
v -0.004692 -0.086336 -3.954167
vt 0.000000 0.000000
vt 0.000000 0.000000
vt 0.000000 0.000000
vt 0.000000 0.000000
vt 0.000000 0.000000
vt 0.000000 0.000000
vt 0.000000 0.000000
vt 0.000000 0.000000
vt 0.000000 0.000000
vt 0.000000 0.000000
vt 0.000000 0.000000
vt 0.000000 0.000000
vt 0.000000 0.000000
vt 0.000000 0.000000
vt 0.000000 0.000000
vt 0.000000 0.000000
vt 0.000000 0.000000
vt 0.000000 0.000000
vt 0.000000 0.000000
vt 0.000000 0.000000
vt 0.000000 0.000000
vt 0.000000 0.000000
vt 0.000000 0.000000
vt 0.000000 0.000000
vt 0.000000 0.000000
vt 0.000000 0.000000
vt 0.000000 0.000000
vt 0.000000 0.000000
vt 0.000000 0.000000
vt 0.000000 0.000000
vt 0.000000 0.000000
vt 0.000000 0.000000
vt 0.000000 0.000000
vt 0.000000 0.000000
vt 0.000000 0.000000
vt 0.000000 0.000000
vt 0.000000 0.000000
vt 0.000000 0.000000
vt 0.000000 0.000000
vt 0.000000 0.000000
vt 0.000000 0.000000
vt 0.000000 0.000000
vt 0.000000 0.000000
vn 0.0000 0.0000 1.0000
vn -1.0000 0.0003 0.0091
vn -1.0000 0.0000 0.0000
vn -1.0000 -0.0008 0.0100
vn -0.9999 -0.0004 -0.0116
vn -1.0000 -0.0087 -0.0001
vn -1.0000 -0.0074 0.0001
vn -0.9999 -0.0081 0.0092
vn -1.0000 0.0000 0.0091
vn -1.0000 0.0017 0.0063
vn -1.0000 0.0078 -0.0001
vn -1.0000 0.0042 0.0004
vn -1.0000 0.0000 0.0063
vn -1.0000 0.0011 -0.0073
vn -0.9988 -0.0114 0.0481
vn -0.9999 0.0003 -0.0115
vn -0.9999 0.0001 -0.0127
usemtl None
s off
f 15/1/1 41/2/1 40/3/1
f 8/4/1 34/5/1 33/6/1
f 1/7/1 27/8/1 26/9/1
f 16/10/1 42/11/1 41/2/1
f 9/12/1 35/13/1 34/5/1
f 2/14/1 28/15/1 27/8/1
f 17/16/1 43/17/1 42/11/1
f 10/18/1 36/19/1 35/13/1
f 1/7/1 43/17/1 26/9/1
f 3/20/1 29/21/1 28/15/1
f 11/22/1 37/23/1 36/19/1
f 4/24/1 30/25/1 29/21/1
f 12/26/1 38/27/1 37/23/1
f 5/28/1 31/29/1 30/25/1
f 13/30/1 39/31/1 38/27/1
f 6/32/1 32/33/1 31/29/1
f 14/34/1 40/3/1 39/31/1
f 7/35/1 33/6/1 32/33/1
f 15/1/1 16/10/1 41/2/1
f 8/4/1 9/12/1 34/5/1
f 1/7/1 2/14/1 27/8/1
f 16/10/1 17/16/1 42/11/1
f 9/12/1 10/18/1 35/13/1
f 2/14/1 3/20/1 28/15/1
f 17/16/1 18/36/1 43/17/1
f 10/18/1 11/22/1 36/19/1
f 1/7/1 18/36/1 43/17/1
f 3/20/1 4/24/1 29/21/1
f 11/22/1 12/26/1 37/23/1
f 4/24/1 5/28/1 30/25/1
f 12/26/1 13/30/1 38/27/1
f 5/28/1 6/32/1 31/29/1
f 13/30/1 14/34/1 39/31/1
f 6/32/1 7/35/1 32/33/1
f 14/34/1 15/1/1 40/3/1
f 7/35/1 8/4/1 33/6/1
f 37/23/2 21/37/2 20/38/2
f 30/25/3 33/6/3 36/19/3
f 34/5/3 36/19/3 33/6/3
f 30/25/3 32/33/3 33/6/3
f 36/19/4 37/23/4 20/38/4
f 37/23/3 39/31/3 40/3/3
f 41/2/3 42/11/3 43/17/3
f 26/9/5 23/39/5 24/40/5
f 27/8/3 28/15/3 29/21/3
f 19/41/6 29/21/6 30/25/6
f 20/38/7 19/41/7 30/25/7
f 30/25/3 31/29/3 32/33/3
f 34/5/3 35/13/3 36/19/3
f 37/23/3 38/27/3 39/31/3
f 22/42/3 21/37/3 25/43/3
f 23/39/3 22/42/3 25/43/3
f 30/25/8 36/19/8 20/38/8
f 21/37/9 37/23/9 40/3/9
f 25/43/10 21/37/10 40/3/10
f 26/9/11 24/40/11 43/17/11
f 24/40/12 25/43/12 43/17/12
f 25/43/13 40/3/13 43/17/13
f 40/3/3 41/2/3 43/17/3
f 26/9/14 22/42/14 23/39/14
f 29/21/15 19/41/15 27/8/15
f 19/41/16 22/42/16 26/9/16
f 27/8/17 19/41/17 26/9/17
