# Blender v2.90.1 OBJ File: ''
# www.blender.org
mtllib hand.mtl
v 0.068265 0.333463 -0.277248
v -0.017194 -0.069668 1.256192
v 0.042797 0.239447 0.128066
v 0.036496 -0.062607 0.509389
v 0.071073 0.508655 -0.391265
v 0.060996 0.533669 -0.257063
v 0.039335 0.450192 0.106780
v 0.023157 0.453402 0.357331
v -0.001853 0.712149 0.607664
v -0.017427 1.121818 0.592239
v -0.004400 1.346155 0.310775
v 0.018908 1.448203 -0.066897
v 0.041199 1.471800 -0.396952
v 0.049381 1.502645 -0.527434
v 0.042716 1.624200 -0.482838
v 0.031788 1.644769 -0.334555
v 0.009372 1.602691 0.005067
v -0.012511 1.518878 0.354603
v -0.021716 1.432681 0.523066
v -0.033060 1.319125 0.733746
v -0.041924 1.672210 0.711201
v -0.041698 1.862179 0.628045
v -0.024627 1.956139 0.343358
v -0.018540 2.038279 0.221377
v -0.025456 2.122896 0.285115
v -0.054492 2.040425 0.736803
v -0.055974 1.772308 0.915695
v -0.102066 1.243202 1.096469
v -0.047966 0.618564 1.195621
vt 0.000000 0.000000
vt 0.000000 0.000000
vt 0.000000 0.000000
vt 0.000000 0.000000
vt 0.000000 0.000000
vt 0.000000 0.000000
vt 0.000000 0.000000
vt 0.000000 0.000000
vt 0.000000 0.000000
vt 0.000000 0.000000
vt 0.000000 0.000000
vt 0.000000 0.000000
vt 0.000000 0.000000
vt 0.000000 0.000000
vt 0.000000 0.000000
vt 0.000000 0.000000
vt 0.000000 0.000000
vt 0.000000 0.000000
vt 0.000000 0.000000
vt 0.000000 0.000000
vt 0.000000 0.000000
vt 0.000000 0.000000
vt 0.000000 0.000000
vt 0.000000 0.000000
vt 0.000000 0.000000
vt 0.000000 0.000000
vt 0.000000 0.000000
vt 0.000000 0.000000
vt 0.000000 0.000000
vn -0.9972 -0.0292 -0.0694
vn -0.9974 -0.0233 -0.0681
vn -0.9980 -0.0400 -0.0482
vn -0.9961 -0.0509 -0.0721
vn -0.9975 -0.0423 -0.0560
vn -0.9905 -0.1007 -0.0937
vn -0.9830 0.0234 -0.1821
vn -0.9976 -0.0348 -0.0604
vn -0.9981 -0.0285 -0.0546
vn -0.9957 -0.0386 -0.0842
vn -0.9974 -0.0295 -0.0662
vn -0.9977 -0.0229 -0.0641
vn -0.9981 -0.0237 -0.0570
vn -0.9830 0.0489 -0.1768
vn -0.9869 -0.0434 -0.1552
usemtl Material.001
s off
f 17/1/1 12/2/1 11/3/1
f 5/4/1 1/5/1 6/6/1
f 1/5/2 3/7/2 7/8/2
f 3/7/3 4/9/3 8/10/3
f 4/9/4 2/11/4 29/12/4
f 8/10/5 4/9/5 9/13/5
f 29/12/6 28/14/6 9/13/6
f 28/14/7 27/15/7 20/16/7
f 27/15/8 26/17/8 22/18/8
f 20/16/9 27/15/9 21/19/9
f 26/17/1 25/20/1 23/21/1
f 25/20/1 24/22/1 23/21/1
f 23/21/1 22/18/1 26/17/1
f 29/12/10 9/13/10 4/9/10
f 1/5/11 7/8/11 6/6/11
f 7/8/12 3/7/12 8/10/12
f 22/18/13 21/19/13 27/15/13
f 20/16/1 19/23/1 10/24/1
f 19/23/1 18/25/1 11/3/1
f 28/14/14 20/16/14 10/24/14
f 9/13/15 28/14/15 10/24/15
f 19/23/1 11/3/1 10/24/1
f 18/25/1 17/1/1 11/3/1
f 17/1/1 16/26/1 12/2/1
f 16/26/1 15/27/1 13/28/1
f 12/2/1 16/26/1 13/28/1
f 15/27/1 14/29/1 13/28/1
