# Blender v2.90.1 OBJ File: 'hand.blend'
# www.blender.org
mtllib hand.mtl
v 0.068265 0.333463 -0.277248
v -0.017194 -0.486728 1.513688
v 0.042797 0.239447 0.128066
v 0.036496 -0.465490 0.766885
v 0.071073 0.508655 -0.391265
v 0.060996 0.533669 -0.257063
v 0.039335 0.450192 0.106780
v 0.023157 0.453402 0.357331
v -0.001853 0.712149 0.607664
v -0.017427 1.027456 0.592239
v -0.268675 1.251794 0.310775
v -0.245367 1.353842 -0.066897
v -0.223076 1.377438 -0.396952
v -0.214894 1.408283 -0.527434
v -0.221560 1.529838 -0.482838
v -0.232487 1.550407 -0.334555
v -0.254903 1.508329 0.005067
v -0.276786 1.424516 0.354603
v -0.285991 1.338319 0.523066
v -0.033060 1.224763 0.768746
v -0.041924 1.577849 0.711201
v -0.041698 1.767818 0.628045
v -0.024627 1.861777 0.343358
v -0.018540 1.943917 0.221377
v -0.025456 2.028534 0.285115
v -0.054492 1.946063 0.736803
v -0.055974 1.677947 0.915695
v -0.102066 1.148840 1.154823
v -0.047966 0.618564 1.270390
v 0.069669 0.421059 -0.334256
v 0.055531 0.286455 -0.074591
v 0.009651 -0.476109 1.140287
v 0.039646 -0.113021 0.447476
v 0.066034 0.521162 -0.324164
v 0.050165 0.491930 -0.075142
v 0.031246 0.451797 0.232055
v 0.010652 0.582775 0.482498
v -0.009640 0.869803 0.599952
v -0.275189 1.139625 0.451507
v -0.257021 1.302818 0.121939
v -0.234221 1.365640 -0.231924
v -0.120843 1.392861 -0.462193
v -0.218227 1.469061 -0.505136
v -0.227023 1.540123 -0.408696
v -0.243695 1.529368 -0.164744
v -0.265844 1.466423 0.179835
v -0.281389 1.381418 0.438834
v -0.111464 1.281541 0.645906
v -0.037492 1.401306 0.739973
v -0.041811 1.672833 0.669623
v -0.033162 1.814797 0.485702
v -0.021583 1.902847 0.282368
v -0.021998 1.986225 0.253246
v -0.039974 1.987298 0.510959
v -0.055233 1.812005 0.826249
v -0.079020 1.413393 1.035259
v -0.075016 0.883702 1.212606
v -0.032580 0.065918 1.392039
v 0.207253 0.415359 -0.260592
v 0.208325 0.482215 -0.304102
v 0.196463 0.312625 -0.062406
v 0.206182 0.348503 -0.217081
v 0.151052 -0.466230 1.159377
v 0.177897 -0.418295 0.827104
v 0.181047 -0.065827 0.507694
v 0.184198 0.286642 0.188285
v 0.204479 0.491761 -0.252889
v 0.200633 0.501307 -0.201675
v 0.192367 0.469450 -0.062827
v 0.184101 0.437594 0.076021
v 0.177927 0.438819 0.171636
v 0.171754 0.417918 0.356365
v 0.152053 0.570527 0.516355
v 0.139549 0.699901 0.641522
v 0.131761 0.857554 0.633809
v 0.123974 1.015208 0.626096
v -0.129910 1.178689 0.445021
v -0.124373 1.274048 0.262730
v -0.114465 1.317425 0.102195
v -0.104558 1.360802 -0.058341
v -0.095083 1.370832 -0.198637
v -0.085607 1.380862 -0.338932
v -0.082130 1.393974 -0.394396
v -0.078652 1.407085 -0.449859
v -0.081485 1.458754 -0.430903
v -0.084318 1.510423 -0.411947
v -0.088963 1.519166 -0.348916
v -0.093608 1.527909 -0.285886
v -0.103136 1.510023 -0.141524
v -0.112664 1.492137 0.002838
v -0.121966 1.456511 0.151414
v -0.131268 1.420885 0.299990
v -0.135181 1.384246 0.371598
v -0.139094 1.347606 0.443206
v -0.143915 1.299337 0.547637
v 0.108341 1.181890 0.766920
v 0.103576 1.462356 0.739489
v 0.099868 1.610077 0.695545
v 0.099962 1.689555 0.660756
v 0.100057 1.769032 0.625966
v 0.107199 1.808342 0.506861
v 0.114340 1.847652 0.387756
v 0.116887 1.882017 0.336723
v 0.119434 1.916382 0.304248
v 0.116541 1.951783 0.312355
v 0.113647 1.973768 0.339021
v 0.101499 1.952681 0.527995
v 0.089352 1.907089 0.716968
v 0.088732 1.806005 0.791812
v 0.088112 1.693833 0.853290
v 0.068828 1.472470 0.963220
v 0.039335 1.158718 1.099546
v 0.066385 0.893580 1.157330
v 0.093435 0.628442 1.215113
v 0.108821 0.075796 1.336762
v 0.124207 -0.476849 1.458412
v 0.249892 0.418593 -0.183680
v 0.250590 0.462197 -0.212057
v 0.242854 0.351590 -0.054423
v 0.249193 0.374990 -0.155302
v 0.198310 -0.464048 1.163654
v 0.225155 -0.416113 0.831381
v 0.228305 -0.063644 0.511972
v 0.234855 0.334644 0.109078
v 0.248082 0.468422 -0.178656
v 0.245574 0.474648 -0.145254
v 0.240183 0.453871 -0.054697
v 0.234792 0.433095 0.035859
v 0.230765 0.404653 0.098219
v 0.226739 0.364629 0.356567
v 0.199311 0.538349 0.540931
v 0.186806 0.667722 0.666098
v 0.179019 0.825376 0.658386
v 0.171232 0.983029 0.650673
v -0.077305 1.222089 0.318794
v -0.073114 1.294264 0.180821
v -0.065615 1.327096 0.059313
v -0.058116 1.359928 -0.062194
v -0.050944 1.367520 -0.168382
v -0.043773 1.375111 -0.274571
v -0.041140 1.385035 -0.316550
v -0.038508 1.394959 -0.358530
v -0.040652 1.434066 -0.344182
v -0.042797 1.473174 -0.329834
v -0.046313 1.479792 -0.282127
v -0.049828 1.486409 -0.234421
v -0.057040 1.472872 -0.125155
v -0.064252 1.459334 -0.015889
v -0.071292 1.432369 0.096567
v -0.078333 1.405404 0.209023
v -0.081294 1.377672 0.263222
v -0.084256 1.349940 0.317421
v -0.087905 1.313406 0.396463
v 0.155599 1.112286 0.805564
v 0.150494 1.528333 0.724332
v 0.147524 1.646652 0.689135
v 0.147600 1.710311 0.661269
v 0.147675 1.773969 0.599037
v 0.153396 1.805455 0.503638
v 0.159116 1.836941 0.408240
v 0.161156 1.864466 0.367364
v 0.163196 1.891991 0.341353
v 0.160878 1.920346 0.347846
v 0.158561 1.937955 0.369205
v 0.148831 1.921065 0.520566
v 0.139101 1.884548 0.671927
v 0.138604 1.803584 0.731874
v 0.138108 1.713737 0.781116
v 0.122662 1.536434 0.869166
v 0.086593 1.160901 0.962257
v 0.113643 0.895763 1.020041
v 0.140693 0.630625 1.077824
v 0.156079 0.077979 1.199473
v 0.171465 -0.474667 1.321122
vt 0.000000 0.000000
vt 0.000000 0.000000
vt 0.000000 0.000000
vt 0.000000 0.000000
vt 0.000000 0.000000
vt 0.000000 0.000000
vt 0.000000 0.000000
vt 0.000000 0.000000
vt 0.000000 0.000000
vt 0.000000 0.000000
vt 0.000000 0.000000
vt 0.000000 0.000000
vt 0.000000 0.000000
vt 0.000000 0.000000
vt 0.000000 0.000000
vt 0.000000 0.000000
vt 0.000000 0.000000
vt 0.000000 0.000000
vt 0.000000 0.000000
vt 0.000000 0.000000
vt 0.000000 0.000000
vt 0.000000 0.000000
vt 0.000000 0.000000
vt 0.000000 0.000000
vt 0.000000 0.000000
vt 0.000000 0.000000
vt 0.000000 0.000000
vt 0.000000 0.000000
vt 0.000000 0.000000
vt 0.000000 0.000000
vt 0.000000 0.000000
vt 0.000000 0.000000
vt 0.000000 0.000000
vt 0.000000 0.000000
vt 0.000000 0.000000
vt 0.000000 0.000000
vt 0.000000 0.000000
vt 0.000000 0.000000
vt 0.000000 0.000000
vt 0.000000 0.000000
vt 0.000000 0.000000
vt 0.000000 0.000000
vt 0.000000 0.000000
vt 0.000000 0.000000
vt 0.000000 0.000000
vt 0.000000 0.000000
vt 0.000000 0.000000
vt 0.000000 0.000000
vt 0.000000 0.000000
vt 0.000000 0.000000
vt 0.000000 0.000000
vt 0.000000 0.000000
vt 0.000000 0.000000
vt 0.000000 0.000000
vt 0.000000 0.000000
vt 0.000000 0.000000
vt 0.000000 0.000000
vt 0.000000 0.000000
vt 0.000000 0.000000
vt 0.000000 0.000000
vt 0.000000 0.000000
vt 0.000000 0.000000
vt 0.000000 0.000000
vt 0.000000 0.000000
vt 0.000000 0.000000
vt 0.000000 0.000000
vt 0.000000 0.000000
vt 0.000000 0.000000
vt 0.000000 0.000000
vt 0.000000 0.000000
vt 0.000000 0.000000
vt 0.000000 0.000000
vt 0.000000 0.000000
vt 0.000000 0.000000
vt 0.000000 0.000000
vt 0.000000 0.000000
vt 0.000000 0.000000
vt 0.000000 0.000000
vt 0.000000 0.000000
vt 0.000000 0.000000
vt 0.000000 0.000000
vt 0.000000 0.000000
vt 0.000000 0.000000
vt 0.000000 0.000000
vt 0.000000 0.000000
vt 0.000000 0.000000
vt 0.000000 0.000000
vt 0.000000 0.000000
vt 0.000000 0.000000
vt 0.000000 0.000000
vt 0.000000 0.000000
vt 0.000000 0.000000
vt 0.000000 0.000000
vt 0.000000 0.000000
vt 0.000000 0.000000
vt 0.000000 0.000000
vt 0.000000 0.000000
vt 0.000000 0.000000
vt 0.000000 0.000000
vt 0.000000 0.000000
vt 0.000000 0.000000
vt 0.000000 0.000000
vt 0.000000 0.000000
vt 0.000000 0.000000
vt 0.000000 0.000000
vt 0.000000 0.000000
vt 0.000000 0.000000
vt 0.000000 0.000000
vt 0.000000 0.000000
vt 0.000000 0.000000
vt 0.000000 0.000000
vt 0.000000 0.000000
vt 0.000000 0.000000
vt 0.000000 0.000000
vt 0.000000 0.000000
vt 0.000000 0.000000
vt 0.000000 0.000000
vt 0.000000 0.000000
vt 0.000000 0.000000
vt 0.000000 0.000000
vt 0.000000 0.000000
vt 0.000000 0.000000
vt 0.000000 0.000000
vt 0.000000 0.000000
vt 0.000000 0.000000
vt 0.000000 0.000000
vt 0.000000 0.000000
vt 0.000000 0.000000
vt 0.000000 0.000000
vt 0.000000 0.000000
vt 0.000000 0.000000
vt 0.000000 0.000000
vt 0.000000 0.000000
vt 0.000000 0.000000
vt 0.000000 0.000000
vt 0.000000 0.000000
vt 0.000000 0.000000
vt 0.000000 0.000000
vt 0.000000 0.000000
vt 0.000000 0.000000
vt 0.000000 0.000000
vt 0.000000 0.000000
vt 0.000000 0.000000
vt 0.000000 0.000000
vt 0.000000 0.000000
vt 0.000000 0.000000
vt 0.000000 0.000000
vt 0.000000 0.000000
vt 0.000000 0.000000
vt 0.000000 0.000000
vt 0.000000 0.000000
vt 0.000000 0.000000
vt 0.000000 0.000000
vt 0.000000 0.000000
vt 0.000000 0.000000
vt 0.000000 0.000000
vt 0.000000 0.000000
vt 0.000000 0.000000
vt 0.000000 0.000000
vt 0.000000 0.000000
vt 0.000000 0.000000
vt 0.000000 0.000000
vt 0.000000 0.000000
vt 0.000000 0.000000
vt 0.000000 0.000000
vt 0.000000 0.000000
vt 0.000000 0.000000
vt 0.000000 0.000000
vt 0.000000 0.000000
vt 0.000000 0.000000
vt 0.000000 0.000000
vt 0.000000 0.000000
vt 0.000000 0.000000
vt 0.000000 0.000000
vn 0.9894 0.0472 0.1372
vn -0.9405 -0.0978 -0.3253
vn -0.2247 -0.6887 0.6894
vn -0.0633 0.9644 0.2567
vn -0.2297 0.0362 0.9726
vn -0.0534 0.9963 0.0676
vn -0.1373 0.6366 0.7589
vn -0.4019 0.5724 0.7147
vn -0.4698 -0.3266 0.8201
vn -0.1997 -0.9725 0.1202
vn -0.1173 0.9918 0.0507
vn -0.1142 -0.9850 -0.1296
vn -0.1135 -0.9645 -0.2384
vn -0.1926 -0.8693 -0.4553
vn -0.2841 -0.9265 -0.2469
vn 0.0407 0.2858 0.9574
vn 0.0100 0.4010 0.9160
vn -0.2485 -0.9642 -0.0925
vn -0.0035 0.9497 0.3132
vn -0.0384 0.0966 0.9946
vn -0.1635 0.8221 0.5454
vn -0.4812 -0.5522 0.6808
vn -0.2811 -0.9407 -0.1898
vn -0.0925 0.8281 0.5530
vn -0.2869 -0.5306 -0.7976
vn -0.4388 -0.5633 0.7002
vn -0.3162 -0.3677 -0.8745
vn -0.3906 0.5065 0.7687
vn -0.2220 -0.9674 -0.1222
vn -0.3399 -0.2332 -0.9111
vn -0.1960 0.9579 0.2099
vn -0.2122 -0.5807 -0.7860
vn -0.3431 -0.2110 -0.9153
vn -0.3182 0.9480 0.0041
vn -0.2807 -0.3749 -0.8836
vn -0.4748 0.5933 0.6500
vn -0.2811 -0.9470 0.1554
vn -0.0735 0.9969 0.0288
vn -0.1326 -0.9643 -0.2291
vn -0.2323 -0.9726 -0.0025
vn -0.0852 -0.9963 0.0073
vn 0.0178 0.8857 0.4639
vn -0.9968 -0.0548 -0.0590
vn -0.0513 0.9970 0.0585
vn -0.2658 -0.9361 -0.2306
vn -0.0976 0.6688 0.7370
vn -0.6920 -0.7144 -0.1040
vn -0.5998 -0.7935 0.1029
vn -0.6491 -0.5604 0.5144
vn -0.4497 0.0215 0.8929
vn -0.5682 -0.8225 -0.0261
vn 0.3784 0.8154 0.4381
vn -0.6504 -0.5880 0.4808
vn 0.0400 0.9640 0.2629
vn 0.0248 0.9970 0.0730
vn 0.2678 0.8713 0.4112
vn -0.1974 0.9567 0.2138
vn -0.9082 -0.1871 0.3744
vn -0.7142 -0.6985 0.0443
vn -0.5915 -0.7945 -0.1375
vn -0.6043 -0.7654 -0.2214
vn -0.7452 -0.5763 -0.3356
vn -0.8578 -0.4112 0.3084
vn -0.0879 0.2820 0.9554
vn 0.3151 0.6632 0.6788
vn -0.7113 -0.6249 -0.3217
vn 0.0812 0.9450 0.3168
vn 0.0467 0.1920 0.9803
vn -0.2164 0.6790 0.7015
vn -0.1816 0.3945 0.9008
vn -0.7201 -0.5717 0.3932
vn -0.5653 -0.7928 -0.2276
vn -0.0558 0.8295 0.5558
vn -0.7338 -0.3234 -0.5975
vn -0.6983 -0.2135 0.6832
vn -0.9440 -0.0528 -0.3258
vn -0.8377 0.3073 0.4515
vn -0.5647 -0.8154 -0.1273
vn -0.9317 -0.1655 -0.3233
vn -0.6508 0.7476 0.1325
vn -0.7064 -0.4184 -0.5709
vn -0.0582 0.9887 0.1379
vn -0.7695 -0.2290 -0.5962
vn 0.3983 0.6491 0.6481
vn -0.6472 0.7609 0.0472
vn 0.9973 0.0262 0.0687
vn 0.9972 0.0292 0.0694
vn 0.9974 0.0295 0.0662
vn 0.9977 0.0229 0.0641
vn 0.9975 0.0262 0.0654
vn 0.9974 0.0233 0.0681
vn 0.9964 0.0438 0.0729
vn 0.9965 0.0513 0.0665
vn 0.9980 0.0371 0.0508
vn 0.9975 0.0386 0.0598
vn 0.9970 0.0257 0.0730
vn 0.9969 0.0381 0.0690
vn 0.9964 0.0436 0.0722
vn 0.9691 0.1427 0.2013
vn 0.9891 0.1196 0.0857
vn 0.9930 0.0542 0.1047
vn 0.9846 -0.0068 0.1746
vn 0.9943 0.0153 0.1058
vn 0.9979 0.0324 0.0568
vn 0.9899 -0.0229 0.1401
vn 0.9981 0.0336 0.0521
vn 0.9976 0.0348 0.0604
vn 0.9981 0.0237 0.0570
vn 0.9977 0.0261 0.0623
vn 0.9982 0.0509 0.0316
vn 0.2903 0.7238 0.6260
vn 0.5757 0.3093 -0.7569
vn 0.6123 0.2971 -0.7326
vn 0.5635 0.3651 -0.7411
vn 0.8473 0.3898 -0.3607
vn -0.1684 -0.7235 0.6694
vn -0.1253 0.6426 0.7559
vn -0.3636 0.9114 0.1927
vn -0.1176 0.9681 0.2215
vn -0.3965 -0.9174 -0.0352
vn -0.0654 0.1589 0.9851
vn -0.1719 -0.8912 -0.4198
vn 0.0619 0.1621 0.9848
vn -0.1756 0.6830 0.7090
vn -0.4152 -0.7235 0.5515
vn -0.2030 -0.9488 -0.2420
vn -0.0925 0.8280 0.5530
vn -0.2240 -0.4674 -0.8552
vn -0.5344 -0.2299 0.8133
vn -0.2892 -0.3585 -0.8876
vn -0.2951 -0.9364 -0.1899
vn -0.2561 -0.5355 -0.8048
vn -0.0872 0.9870 0.1353
vn -0.3275 -0.3972 -0.8573
vn -0.3461 0.9348 0.0800
vn -0.0603 0.9979 0.0240
vn -0.1348 -0.9841 -0.1159
vn -0.1808 0.7732 0.6079
vn -0.9972 -0.0292 -0.0694
vn -0.9973 -0.0262 -0.0687
vn -0.9974 -0.0295 -0.0662
vn -0.9978 -0.0400 -0.0530
vn -0.9975 -0.0262 -0.0654
vn -0.9926 -0.0731 -0.0974
vn -0.9934 -0.0722 -0.0895
vn -0.9933 -0.0714 -0.0906
vn -0.9994 -0.0149 -0.0310
vn -0.9933 -0.0427 -0.1076
vn -0.9829 -0.0652 -0.1720
vn -0.9844 -0.1270 -0.1217
vn -0.9202 -0.1707 -0.3523
vn -0.9938 -0.0497 -0.1000
vn -0.9938 0.0107 -0.1103
vn -0.9977 -0.0622 -0.0252
vn -0.9945 -0.0433 -0.0956
vn -0.9885 0.0508 -0.1421
vn -0.9164 -0.0112 -0.4001
vn -0.9821 -0.0079 -0.1883
vn -0.9963 -0.0372 -0.0778
vn -0.9975 -0.0380 -0.0596
vn -0.9970 -0.0537 -0.0561
vn -0.9970 -0.0303 -0.0714
vn -0.9972 -0.0316 -0.0676
vn -0.9968 -0.0334 -0.0722
vn -0.9962 -0.0332 -0.0808
vn -0.9900 -0.0508 -0.1314
vn -0.9814 -0.0483 -0.1859
vn -0.9966 -0.0455 -0.0688
vn -0.9843 -0.0568 -0.1669
vn -0.9964 -0.0329 -0.0780
vn -0.8484 -0.4454 0.2860
vn -0.9959 -0.0549 -0.0714
vn -0.8487 -0.3963 0.3501
vn 0.0768 0.9962 0.0423
vn -0.6558 -0.7444 -0.1255
vn -0.3923 -0.8271 -0.4025
vn -0.6051 -0.6224 0.4965
vn 0.4286 0.8542 0.2944
vn -0.2743 -0.9428 -0.1894
vn -0.5670 0.0706 0.8207
vn -0.8528 -0.0470 -0.5201
usemtl Material.001
s off
f 20/1/1 49/2/1 56/3/1
f 115/4/2 174/5/2 116/6/2
f 8/7/3 73/8/3 37/9/3
f 12/10/4 79/11/4 80/12/4
f 9/13/5 75/14/5 38/15/5
f 41/16/6 82/17/6 13/18/6
f 10/19/7 77/20/7 39/21/7
f 42/22/8 84/23/8 14/24/8
f 40/25/4 78/26/4 79/11/4
f 15/27/9 85/28/9 86/29/9
f 12/10/6 81/30/6 41/16/6
f 16/31/10 87/32/10 88/33/10
f 13/18/11 83/34/11 42/22/11
f 17/35/12 89/36/12 90/37/12
f 43/38/9 84/23/9 85/28/9
f 46/39/13 92/40/13 18/41/13
f 44/42/10 86/29/10 87/32/10
f 47/43/14 94/44/14 19/45/14
f 45/46/12 88/33/12 89/36/12
f 48/47/15 96/48/15 20/1/15
f 17/35/13 91/49/13 46/39/13
f 21/50/16 97/51/16 98/52/16
f 18/41/14 93/53/14 47/43/14
f 22/54/17 99/55/17 100/56/17
f 19/45/18 95/57/18 48/47/18
f 51/58/19 102/59/19 23/60/19
f 49/2/20 96/48/20 97/51/20
f 52/61/21 104/62/21 24/63/21
f 50/64/17 98/52/17 99/55/17
f 53/65/22 106/66/22 25/67/22
f 22/54/19 101/68/19 51/58/19
f 54/69/23 108/70/23 26/71/23
f 23/60/24 103/72/24 52/61/24
f 55/73/25 110/74/25 27/75/25
f 24/63/26 105/76/26 53/65/26
f 56/3/27 112/77/27 28/78/27
f 30/79/28 60/80/28 5/81/28
f 54/69/29 106/66/29 107/82/29
f 57/83/30 114/84/30 29/85/30
f 31/86/31 62/87/31 1/88/31
f 55/73/32 108/70/32 109/89/32
f 29/85/33 115/4/33 58/90/33
f 32/91/34 64/92/34 4/93/34
f 27/75/35 111/94/35 56/3/35
f 1/88/28 59/95/28 30/79/28
f 33/96/36 66/97/36 3/98/36
f 28/78/30 113/99/30 57/83/30
f 3/98/31 61/100/31 31/86/31
f 6/101/37 67/102/37 68/103/37
f 58/90/33 116/6/33 2/104/33
f 32/91/38 116/6/38 63/105/38
f 35/106/39 70/107/39 7/108/39
f 4/93/36 65/109/36 33/96/36
f 36/110/40 72/111/40 8/7/40
f 34/112/37 60/80/37 67/102/37
f 9/13/3 73/8/3 74/113/3
f 35/106/39 68/103/39 69/114/39
f 38/15/5 76/115/5 10/19/5
f 7/108/41 71/116/41 36/110/41
f 11/117/42 77/20/42 78/26/42
f 152/118/43 136/119/43 135/120/43
f 63/105/44 174/5/44 121/121/44
f 69/114/45 128/122/45 70/107/45
f 64/92/46 123/123/46 65/109/46
f 71/116/47 130/124/47 72/111/47
f 67/102/48 118/125/48 125/126/48
f 73/8/49 132/127/49 74/113/49
f 69/114/45 126/128/45 127/129/45
f 75/14/50 134/130/50 76/115/50
f 70/107/51 129/131/51 71/116/51
f 78/26/52 135/120/52 136/119/52
f 72/111/53 131/132/53 73/8/53
f 80/12/54 137/133/54 138/134/54
f 74/113/50 133/135/50 75/14/50
f 81/30/55 140/136/55 82/17/55
f 76/115/56 135/120/56 77/20/56
f 83/34/57 142/137/57 84/23/57
f 79/11/54 136/119/54 137/133/54
f 85/28/58 144/138/58 86/29/58
f 80/12/55 139/139/55 81/30/55
f 88/33/59 145/140/59 146/141/59
f 82/17/57 141/142/57 83/34/57
f 90/37/60 147/143/60 148/144/60
f 85/28/58 142/137/58 143/145/58
f 91/49/61 150/146/61 92/40/61
f 87/32/59 144/138/59 145/140/59
f 93/53/62 152/118/62 94/44/62
f 89/36/60 146/141/60 147/143/60
f 96/48/63 153/147/63 154/148/63
f 90/37/61 149/149/61 91/49/61
f 98/52/64 155/150/64 156/151/64
f 92/40/62 151/152/62 93/53/62
f 100/56/65 157/153/65 158/154/65
f 94/44/66 153/147/66 95/57/66
f 101/68/67 160/155/67 102/59/67
f 97/51/68 154/148/68 155/150/68
f 103/72/69 162/156/69 104/62/69
f 99/55/70 156/151/70 157/153/70
f 106/66/71 163/157/71 164/158/71
f 101/68/67 158/154/67 159/159/67
f 107/82/72 166/160/72 108/70/72
f 102/59/73 161/161/73 103/72/73
f 109/89/74 168/162/74 110/74/74
f 104/62/75 163/157/75 105/76/75
f 111/94/76 170/163/76 112/77/76
f 59/95/77 118/125/77 60/80/77
f 107/82/78 164/158/78 165/164/78
f 113/99/79 172/165/79 114/84/79
f 61/100/80 120/166/80 62/87/80
f 108/70/81 167/167/81 109/89/81
f 114/84/2 173/168/2 115/4/2
f 63/105/82 122/169/82 64/92/82
f 110/74/83 169/170/83 111/94/83
f 62/87/77 117/171/77 59/95/77
f 66/97/84 123/123/84 124/172/84
f 112/77/79 171/173/79 113/99/79
f 61/100/85 124/172/85 119/174/85
f 68/103/48 125/126/48 126/128/48
f 31/86/86 1/88/86 35/106/86
f 1/88/87 30/79/87 6/101/87
f 35/106/88 1/88/88 6/101/88
f 30/79/87 5/81/87 34/112/87
f 34/112/87 6/101/87 30/79/87
f 7/108/89 36/110/89 3/98/89
f 36/110/89 8/7/89 3/98/89
f 35/106/90 7/108/90 31/86/90
f 3/98/91 31/86/91 7/108/91
f 32/91/92 4/93/92 58/90/92
f 4/93/93 33/96/93 58/90/93
f 33/96/94 3/98/94 8/7/94
f 8/7/95 37/9/95 33/96/95
f 37/9/96 9/13/96 29/85/96
f 33/96/97 37/9/97 58/90/97
f 2/104/92 32/91/92 58/90/92
f 58/90/98 37/9/98 29/85/98
f 28/78/99 57/83/99 20/1/99
f 57/83/100 29/85/100 9/13/100
f 38/15/101 57/83/101 9/13/101
f 56/3/102 28/78/102 20/1/102
f 57/83/103 38/15/103 20/1/103
f 55/73/104 27/75/104 50/64/104
f 27/75/105 56/3/105 49/2/105
f 21/50/106 27/75/106 49/2/106
f 54/69/87 26/71/87 22/54/87
f 26/71/107 55/73/107 22/54/107
f 53/65/87 25/67/87 52/61/87
f 25/67/87 54/69/87 23/60/87
f 52/61/87 25/67/87 23/60/87
f 52/61/87 24/63/87 53/65/87
f 51/58/87 23/60/87 54/69/87
f 21/50/108 50/64/108 27/75/108
f 50/64/109 22/54/109 55/73/109
f 22/54/87 51/58/87 54/69/87
f 20/1/110 38/15/110 10/19/110
f 11/117/87 40/25/87 46/39/87
f 40/25/87 12/10/87 17/35/87
f 11/117/87 46/39/87 18/41/87
f 12/10/87 41/16/87 45/46/87
f 41/16/87 13/18/87 16/31/87
f 45/46/87 41/16/87 16/31/87
f 13/18/111 42/22/111 43/38/111
f 42/22/112 14/24/112 43/38/112
f 43/38/87 15/27/87 44/42/87
f 13/18/87 43/38/87 44/42/87
f 44/42/87 16/31/87 13/18/87
f 45/46/87 17/35/87 12/10/87
f 17/35/87 46/39/87 40/25/87
f 18/41/87 47/43/87 11/117/87
f 47/43/87 19/45/87 11/117/87
f 19/45/113 48/47/113 39/21/113
f 11/117/87 19/45/87 39/21/87
f 39/21/114 48/47/114 10/19/114
f 48/47/115 20/1/115 10/19/115
f 115/4/2 173/168/2 174/5/2
f 8/7/116 72/111/116 73/8/116
f 12/10/4 40/25/4 79/11/4
f 9/13/5 74/113/5 75/14/5
f 41/16/6 81/30/6 82/17/6
f 10/19/117 76/115/117 77/20/117
f 42/22/118 83/34/118 84/23/118
f 40/25/4 11/117/4 78/26/4
f 15/27/9 43/38/9 85/28/9
f 12/10/6 80/12/6 81/30/6
f 16/31/10 44/42/10 87/32/10
f 13/18/119 82/17/119 83/34/119
f 17/35/12 45/46/12 89/36/12
f 43/38/9 14/24/9 84/23/9
f 46/39/13 91/49/13 92/40/13
f 44/42/10 15/27/10 86/29/10
f 47/43/14 93/53/14 94/44/14
f 45/46/12 16/31/12 88/33/12
f 48/47/120 95/57/120 96/48/120
f 17/35/13 90/37/13 91/49/13
f 21/50/121 49/2/121 97/51/121
f 18/41/14 92/40/14 93/53/14
f 22/54/17 50/64/17 99/55/17
f 19/45/122 94/44/122 95/57/122
f 51/58/19 101/68/19 102/59/19
f 49/2/123 20/1/123 96/48/123
f 52/61/124 103/72/124 104/62/124
f 50/64/17 21/50/17 98/52/17
f 53/65/125 105/76/125 106/66/125
f 22/54/19 100/56/19 101/68/19
f 54/69/126 107/82/126 108/70/126
f 23/60/127 102/59/127 103/72/127
f 55/73/128 109/89/128 110/74/128
f 24/63/129 104/62/129 105/76/129
f 56/3/130 111/94/130 112/77/130
f 30/79/28 59/95/28 60/80/28
f 54/69/131 25/67/131 106/66/131
f 57/83/30 113/99/30 114/84/30
f 31/86/31 61/100/31 62/87/31
f 55/73/132 26/71/132 108/70/132
f 29/85/33 114/84/33 115/4/33
f 32/91/133 63/105/133 64/92/133
f 27/75/134 110/74/134 111/94/134
f 1/88/28 62/87/28 59/95/28
f 33/96/36 65/109/36 66/97/36
f 28/78/30 112/77/30 113/99/30
f 3/98/135 66/97/135 61/100/135
f 6/101/37 34/112/37 67/102/37
f 58/90/33 115/4/33 116/6/33
f 32/91/136 2/104/136 116/6/136
f 35/106/39 69/114/39 70/107/39
f 4/93/36 64/92/36 65/109/36
f 36/110/137 71/116/137 72/111/137
f 34/112/37 5/81/37 60/80/37
f 9/13/3 37/9/3 73/8/3
f 35/106/39 6/101/39 68/103/39
f 38/15/5 75/14/5 76/115/5
f 7/108/41 70/107/41 71/116/41
f 11/117/138 39/21/138 77/20/138
f 117/171/139 120/166/139 126/128/139
f 120/166/140 119/174/140 127/129/140
f 120/166/141 127/129/141 126/128/141
f 119/174/142 124/172/142 128/122/142
f 127/129/143 119/174/143 128/122/143
f 125/126/139 118/125/139 117/171/139
f 126/128/139 125/126/139 117/171/139
f 129/131/144 128/122/144 124/172/144
f 123/123/145 122/169/145 173/168/145
f 122/169/146 121/121/146 173/168/146
f 124/172/147 123/123/147 130/124/147
f 130/124/148 123/123/148 131/132/148
f 121/121/149 174/5/149 173/168/149
f 172/165/150 171/173/150 132/127/150
f 171/173/151 170/163/151 154/148/151
f 173/168/152 172/165/152 131/132/152
f 131/132/153 172/165/153 132/127/153
f 129/131/154 124/172/154 130/124/154
f 131/132/155 123/123/155 173/168/155
f 171/173/156 154/148/156 134/130/156
f 170/163/157 169/170/157 154/148/157
f 169/170/158 168/162/158 155/150/158
f 168/162/159 167/167/159 157/153/159
f 167/167/160 166/160/160 158/154/160
f 157/153/161 167/167/161 158/154/161
f 166/160/162 165/164/162 158/154/162
f 165/164/163 164/158/163 160/155/163
f 160/155/164 164/158/164 161/161/164
f 164/158/165 163/157/165 161/161/165
f 163/157/166 162/156/166 161/161/166
f 160/155/139 159/159/139 165/164/139
f 159/159/139 158/154/139 165/164/139
f 169/170/167 155/150/167 154/148/167
f 155/150/168 168/162/168 156/151/168
f 134/130/169 133/135/169 171/173/169
f 133/135/169 132/127/169 171/173/169
f 157/153/170 156/151/170 168/162/170
f 141/142/139 140/136/139 145/140/139
f 140/136/139 139/139/139 146/141/139
f 145/140/139 140/136/139 146/141/139
f 143/145/139 142/137/139 141/142/139
f 145/140/139 144/138/139 143/145/139
f 147/143/139 146/141/139 139/139/139
f 149/149/139 148/144/139 137/133/139
f 148/144/139 147/143/139 138/134/139
f 151/152/139 150/146/139 136/119/139
f 150/146/139 149/149/139 136/119/139
f 154/148/171 153/147/171 134/130/171
f 153/147/172 152/118/172 135/120/172
f 152/118/139 151/152/139 136/119/139
f 148/144/139 138/134/139 137/133/139
f 138/134/139 147/143/139 139/139/139
f 145/140/139 143/145/139 141/142/139
f 136/119/139 149/149/139 137/133/139
f 153/147/173 135/120/173 134/130/173
f 63/105/174 116/6/174 174/5/174
f 69/114/45 127/129/45 128/122/45
f 64/92/46 122/169/46 123/123/46
f 71/116/175 129/131/175 130/124/175
f 67/102/48 60/80/48 118/125/48
f 73/8/49 131/132/49 132/127/49
f 69/114/45 68/103/45 126/128/45
f 75/14/50 133/135/50 134/130/50
f 70/107/176 128/122/176 129/131/176
f 78/26/52 77/20/52 135/120/52
f 72/111/177 130/124/177 131/132/177
f 80/12/54 79/11/54 137/133/54
f 74/113/50 132/127/50 133/135/50
f 81/30/55 139/139/55 140/136/55
f 76/115/178 134/130/178 135/120/178
f 83/34/57 141/142/57 142/137/57
f 79/11/54 78/26/54 136/119/54
f 85/28/58 143/145/58 144/138/58
f 80/12/55 138/134/55 139/139/55
f 88/33/59 87/32/59 145/140/59
f 82/17/57 140/136/57 141/142/57
f 90/37/60 89/36/60 147/143/60
f 85/28/58 84/23/58 142/137/58
f 91/49/61 149/149/61 150/146/61
f 87/32/59 86/29/59 144/138/59
f 93/53/62 151/152/62 152/118/62
f 89/36/60 88/33/60 146/141/60
f 96/48/179 95/57/179 153/147/179
f 90/37/61 148/144/61 149/149/61
f 98/52/64 97/51/64 155/150/64
f 92/40/62 150/146/62 151/152/62
f 100/56/70 99/55/70 157/153/70
f 94/44/66 152/118/66 153/147/66
f 101/68/67 159/159/67 160/155/67
f 97/51/180 96/48/180 154/148/180
f 103/72/69 161/161/69 162/156/69
f 99/55/70 98/52/70 156/151/70
f 106/66/71 105/76/71 163/157/71
f 101/68/67 100/56/67 158/154/67
f 107/82/72 165/164/72 166/160/72
f 102/59/73 160/155/73 161/161/73
f 109/89/74 167/167/74 168/162/74
f 104/62/75 162/156/75 163/157/75
f 111/94/181 169/170/181 170/163/181
f 59/95/77 117/171/77 118/125/77
f 107/82/78 106/66/78 164/158/78
f 113/99/79 171/173/79 172/165/79
f 61/100/80 119/174/80 120/166/80
f 108/70/81 166/160/81 167/167/81
f 114/84/2 172/165/2 173/168/2
f 63/105/82 121/121/82 122/169/82
f 110/74/83 168/162/83 169/170/83
f 62/87/77 120/166/77 117/171/77
f 66/97/46 65/109/46 123/123/46
f 112/77/79 170/163/79 171/173/79
f 61/100/85 66/97/85 124/172/85
f 68/103/48 67/102/48 125/126/48
